<svg width="80" height="93" viewBox="0 0 80 93" fill="none" xmlns="http://www.w3.org/2000/svg">
<path d="M0.5 57.9422L0.5 34.6894C0.5 27.7312 4.20777 21.3002 10.2296 17.8137L30.2296 6.23447C36.2733 2.7354 43.7267 2.7354 49.7704 6.23447L69.7704 17.8137C75.7922 21.3002 79.5 27.7312 79.5 34.6895V57.9422C79.5 64.9004 75.7922 71.3314 69.7704 74.8179L49.7704 86.3971C43.7267 89.8962 36.2733 89.8962 30.2296 86.3971L10.2296 74.8179C4.20777 71.3315 0.5 64.9004 0.5 57.9422Z" fill="#F9FEFF" stroke="#D2F5FF"/>
<g clip-path="url(#clip0_2894_41134)">
<path d="M59.0002 45.8122C58.8524 46.696 58.7616 47.5942 58.5462 48.4615C58.1367 50.1093 57.675 51.7445 57.2008 53.3749C56.8174 54.6942 56.7575 55.9759 57.2935 57.2827C57.8257 58.5799 57.024 60.1021 55.5975 60.5773C54.3747 60.9848 53.1278 60.9192 51.8809 60.6845C48.9968 60.1407 46.2615 59.228 43.8855 57.4373C43.3861 57.0606 42.9187 56.6414 42.4048 56.2154C42.1759 56.4936 41.9489 56.7795 41.7113 57.0557C39.318 59.8471 36.2929 61.7633 32.9906 63.2749C31.9147 63.7675 30.7933 64.1664 29.6816 64.5788C28.8973 64.8705 28.2222 64.5933 28.0136 63.9452C27.7943 63.2633 28.1691 62.7253 28.9504 62.4143C30.4379 61.8222 31.9021 61.1693 33.3818 60.5589C33.9121 60.3397 34.2192 59.9446 34.4394 59.4404C35.1242 57.8709 35.4932 56.2135 35.8177 54.5435C35.9703 53.7573 36.092 52.9653 36.232 52.1492C35.7481 51.9744 35.2768 51.8295 34.8248 51.6382C32.3551 50.5884 30.1104 49.1473 27.9749 47.5488C25.71 45.8537 23.4934 44.091 21.3018 42.3023C20.0375 41.2707 19.1325 39.9649 19.0118 38.266C18.8843 36.4753 19.8424 35.0989 21.5954 34.729C22.9882 34.4354 24.4177 34.3156 25.8327 34.136C26.1475 34.0964 26.4721 34.1302 26.7666 34.1302C27.3239 32.494 27.9701 32.0854 29.8989 32.0033C31.5457 31.9338 33.1191 32.3028 34.6915 32.7075C35.1416 32.8234 35.5926 32.9373 36.0476 33.032C36.6976 33.1672 37.3283 33.174 37.9918 32.9779C40.2867 32.3018 42.6183 31.7928 45.0097 31.5745C46.7724 31.4142 47.719 31.8758 48.5177 33.4724C48.7109 33.8588 48.9427 34.0577 49.3619 34.1166C49.7888 34.1765 50.207 34.2982 50.7093 34.4112C50.8609 33.7419 51.0386 33.0667 51.1623 32.382C51.3516 31.3408 51.509 30.2928 51.6664 29.2458C51.7205 28.8875 51.8683 28.7049 52.2614 28.7117C52.6777 28.7185 53.094 28.6624 53.5112 28.6344C53.9719 28.6035 54.1564 28.7571 54.0676 29.2139C53.7141 31.023 53.3325 32.8253 52.9597 34.6305C52.924 34.8014 52.8776 34.9705 52.8255 35.18C53.1519 35.3433 53.4784 35.5036 53.8029 35.6697C56.4107 37.0045 58.1502 39.0261 58.7529 41.942C58.8399 42.3612 58.9171 42.7823 58.9983 43.2034V45.8112L59.0002 45.8122ZM28.2367 33.8684C28.2589 33.909 28.2801 33.9486 28.3024 33.9891C29.5309 34.1002 30.7605 34.1968 31.9871 34.3243C34.6326 34.5996 36.6396 35.8291 37.7349 38.3191C38.5491 40.1706 39.2436 42.0705 39.6386 44.0611C39.9274 45.5147 40.0897 46.9809 39.8868 48.4683C39.7246 49.6631 39.2407 50.6985 38.3762 51.617C38.9799 51.9715 39.5382 52.2999 40.1718 52.6717C40.0308 51.7377 40.278 50.967 40.5156 50.1779C41.3356 47.46 41.4332 44.7546 40.306 42.0724C39.5662 40.3136 38.8795 38.5316 38.1927 36.7515C38.0633 36.4154 37.9648 36.03 37.9947 35.6784C38.0536 34.984 38.6071 34.7039 39.1953 34.5175C41.4902 33.7911 43.843 33.5661 46.2383 33.7071C46.4962 33.7226 46.756 33.709 47.0525 33.709C46.7087 33.1006 46.2412 32.9006 45.6163 32.9315C43.0645 33.0571 40.6161 33.7052 38.157 34.3272C37.5369 34.4837 36.8405 34.5368 36.2147 34.4305C34.763 34.1842 33.3451 33.7235 31.8895 33.5197C30.8889 33.3797 29.8468 33.5091 28.8258 33.5584C28.625 33.568 28.4327 33.7593 28.2367 33.8674V33.8684ZM38.41 53.2763C38.1222 54.6266 37.8373 55.9518 37.5649 57.2798C37.5427 57.389 37.6065 57.5165 37.6296 57.6353C37.7533 57.5966 37.9117 57.5947 37.9947 57.5145C38.667 56.8713 39.3363 56.2251 39.9815 55.5548C40.2732 55.2506 40.506 54.8903 40.7803 54.5368C39.9467 54.0935 39.175 53.683 38.41 53.2763Z" fill="#006DAF"/>
</g>
<defs>
<clipPath id="clip0_2894_41134">
<rect width="40" height="36.0632" fill="white" transform="translate(19 28.6316)"/>
</clipPath>
</defs>
</svg>
